<svg width="70" height="70" viewBox="0 0 70 70" fill="none" xmlns="http://www.w3.org/2000/svg">
<rect width="70" height="70" rx="6" fill="#6AAA64"/>
<path d="M19.796 58C19.5827 58 19.412 57.9573 19.284 57.872C19.1987 57.744 19.156 57.5733 19.156 57.36V11.344C19.156 11.0453 19.22 10.832 19.348 10.704C19.476 10.576 19.668 10.512 19.924 10.512H34.004C39.5507 10.512 43.8173 11.5573 46.804 13.648C49.8333 15.7387 51.348 18.7893 51.348 22.8C51.348 25.4027 50.6653 27.6 49.3 29.392C47.9773 31.184 45.8653 32.5493 42.964 33.488C42.836 33.5307 42.772 33.6373 42.772 33.808C42.772 33.936 42.836 34.0213 42.964 34.064C45.9933 34.7467 48.34 36.0267 50.004 37.904C51.668 39.7387 52.5 42.2133 52.5 45.328C52.5 49.5947 50.9213 52.7733 47.764 54.864C44.6067 56.9547 40.1267 58 34.324 58H19.796ZM34.004 54.288C38.5693 54.288 41.9613 53.6053 44.18 52.24C46.3987 50.832 47.508 48.5493 47.508 45.392C47.508 43.088 46.9533 41.2533 45.844 39.888C44.7347 38.48 43.22 37.456 41.3 36.816C39.38 36.176 37.204 35.856 34.772 35.856H24.788C24.2333 35.856 23.956 36.0907 23.956 36.56V53.52C23.956 54.032 24.148 54.288 24.532 54.288H34.004ZM34.772 32.144C36.18 32.144 37.5667 32.016 38.932 31.76C40.2973 31.4613 41.5347 30.992 42.644 30.352C43.796 29.712 44.7133 28.816 45.396 27.664C46.1213 26.512 46.484 25.0613 46.484 23.312C46.484 20.1973 45.332 17.9147 43.028 16.464C40.7667 14.9707 37.716 14.224 33.876 14.224H24.724C24.212 14.224 23.956 14.4373 23.956 14.864V31.376C23.956 31.888 24.148 32.144 24.532 32.144H34.772Z" fill="white"/>
</svg>
